<svg width="124" height="40" viewBox="0 0 124 40" fill="none" xmlns="http://www.w3.org/2000/svg">
<rect width="124" height="40" rx="20" fill="#75FB61"/>
<path d="M20.72 25.128C19.6427 25.128 18.7093 24.8133 17.92 24.184C17.1307 23.544 16.6453 22.712 16.464 21.688L17.84 21.24C17.9467 22.0187 18.272 22.648 18.816 23.128C19.36 23.5973 20.0053 23.832 20.752 23.832C21.52 23.832 22.1333 23.6667 22.592 23.336C23.0507 22.9947 23.28 22.5467 23.28 21.992C23.28 21.5333 23.12 21.1493 22.8 20.84C22.4907 20.52 22.1013 20.2907 21.632 20.152C21.1627 20.0027 20.6507 19.8373 20.096 19.656C19.5413 19.4747 19.0293 19.288 18.56 19.096C18.0907 18.904 17.696 18.5947 17.376 18.168C17.0667 17.7413 16.912 17.2187 16.912 16.6C16.912 15.736 17.264 15.032 17.968 14.488C18.672 13.944 19.5787 13.672 20.688 13.672C21.712 13.672 22.5867 13.928 23.312 14.44C24.0373 14.9413 24.4693 15.608 24.608 16.44L23.28 16.952C23.1627 16.344 22.8747 15.864 22.416 15.512C21.968 15.1493 21.392 14.968 20.688 14.968C19.9733 14.968 19.408 15.1173 18.992 15.416C18.5867 15.704 18.384 16.0987 18.384 16.6C18.384 16.9413 18.5013 17.2293 18.736 17.464C18.9707 17.6987 19.2747 17.88 19.648 18.008C20.032 18.136 20.448 18.2587 20.896 18.376C21.3547 18.4933 21.808 18.632 22.256 18.792C22.7147 18.952 23.1307 19.1547 23.504 19.4C23.888 19.6347 24.1973 19.9707 24.432 20.408C24.6667 20.8453 24.784 21.368 24.784 21.976C24.784 22.9253 24.4107 23.688 23.664 24.264C22.928 24.84 21.9467 25.128 20.72 25.128ZM33.055 23.96C32.287 24.7387 31.3057 25.128 30.111 25.128C28.9163 25.128 27.935 24.7387 27.167 23.96C26.399 23.1707 26.015 22.1733 26.015 20.968C26.015 19.7627 26.399 18.7707 27.167 17.992C27.935 17.2027 28.9163 16.808 30.111 16.808C31.3057 16.808 32.287 17.2027 33.055 17.992C33.8337 18.7707 34.223 19.7627 34.223 20.968C34.223 22.1733 33.8337 23.1707 33.055 23.96ZM28.159 23.096C28.6603 23.64 29.311 23.912 30.111 23.912C30.911 23.912 31.5617 23.64 32.063 23.096C32.5643 22.5413 32.815 21.832 32.815 20.968C32.815 20.104 32.5643 19.4 32.063 18.856C31.5617 18.3013 30.911 18.024 30.111 18.024C29.311 18.024 28.6603 18.3013 28.159 18.856C27.6577 19.4 27.407 20.104 27.407 20.968C27.407 21.832 27.6577 22.5413 28.159 23.096ZM39.4994 25.128C38.3047 25.128 37.3394 24.7493 36.6034 23.992C35.8674 23.224 35.4994 22.216 35.4994 20.968C35.4994 19.72 35.8674 18.7173 36.6034 17.96C37.3394 17.192 38.3047 16.808 39.4994 16.808C40.438 16.808 41.222 17.048 41.8514 17.528C42.4914 17.9973 42.886 18.632 43.0354 19.432L41.6914 19.704C41.606 19.2133 41.366 18.8133 40.9714 18.504C40.5767 18.184 40.0967 18.024 39.5314 18.024C38.742 18.024 38.1074 18.296 37.6274 18.84C37.158 19.3733 36.9234 20.0827 36.9234 20.968C36.9234 21.8533 37.158 22.568 37.6274 23.112C38.1074 23.6453 38.742 23.912 39.5314 23.912C40.1074 23.912 40.5874 23.7627 40.9714 23.464C41.366 23.1653 41.6167 22.7493 41.7234 22.216L43.0514 22.488C42.8807 23.32 42.4754 23.9707 41.8354 24.44C41.206 24.8987 40.4274 25.128 39.4994 25.128ZM44.6486 13.672H46.2166V15.4H44.6486V13.672ZM44.7446 25V16.936H46.1046V25H44.7446ZM51.3151 16.808C52.3071 16.808 53.1071 17.08 53.7151 17.624C54.3231 18.168 54.6271 18.904 54.6271 19.832V25H53.2831V23.624C53.0485 24.0827 52.6858 24.4507 52.1951 24.728C51.7151 24.9947 51.1818 25.128 50.5951 25.128C49.7951 25.128 49.1391 24.9093 48.6271 24.472C48.1258 24.024 47.8751 23.448 47.8751 22.744C47.8751 21.2293 49.1551 20.344 51.7151 20.088L53.2831 19.912V19.752C53.2831 19.1973 53.1018 18.76 52.7391 18.44C52.3871 18.1093 51.9125 17.944 51.3151 17.944C50.7605 17.944 50.3018 18.0987 49.9391 18.408C49.5765 18.7173 49.3685 19.144 49.3151 19.688L48.0511 19.448C48.1685 18.648 48.5258 18.008 49.1231 17.528C49.7311 17.048 50.4618 16.808 51.3151 16.808ZM50.8031 24.008C51.5818 24.008 52.1898 23.768 52.6271 23.288C53.0645 22.808 53.2831 22.1627 53.2831 21.352V20.968L51.7151 21.144C50.0618 21.3253 49.2351 21.8533 49.2351 22.728C49.2351 23.1013 49.3791 23.4107 49.6671 23.656C49.9658 23.8907 50.3445 24.008 50.8031 24.008ZM56.8384 25V13.672H58.1984V25H56.8384ZM64.2603 25V16.936H65.6203V18.456C66.0789 17.3573 66.8896 16.808 68.0523 16.808C68.7136 16.808 69.2789 16.9573 69.7483 17.256C70.2283 17.5547 70.5376 17.9707 70.6763 18.504C70.9003 18.0027 71.2416 17.5973 71.7003 17.288C72.1696 16.968 72.6976 16.808 73.2843 16.808C74.1483 16.808 74.8309 17.0587 75.3323 17.56C75.8443 18.0613 76.1003 18.7387 76.1003 19.592V25H74.7403V19.864C74.7403 19.2987 74.5856 18.8507 74.2763 18.52C73.9669 18.1787 73.5349 18.008 72.9803 18.008C72.3083 18.008 71.7856 18.28 71.4123 18.824C71.0389 19.368 70.8523 20.0773 70.8523 20.952V25H69.4923V19.864C69.4923 19.2987 69.3376 18.8507 69.0283 18.52C68.7296 18.1787 68.3029 18.008 67.7483 18.008C67.0763 18.008 66.5536 18.28 66.1803 18.824C65.8069 19.368 65.6203 20.0773 65.6203 20.952V25H64.2603ZM85.6031 20.6C85.6031 20.824 85.5925 21.032 85.5711 21.224H79.2031C79.2458 22.0347 79.5018 22.6907 79.9711 23.192C80.4511 23.6827 81.0538 23.928 81.7791 23.928C82.3978 23.928 82.9098 23.7893 83.3151 23.512C83.7205 23.2347 83.9818 22.8453 84.0991 22.344L85.3791 22.648C85.1765 23.4267 84.7551 24.0347 84.1151 24.472C83.4858 24.9093 82.7071 25.128 81.7791 25.128C80.5951 25.128 79.6405 24.728 78.9151 23.928C78.2005 23.128 77.8431 22.1413 77.8431 20.968C77.8431 19.784 78.1951 18.7973 78.8991 18.008C79.6138 17.208 80.5631 16.808 81.7471 16.808C82.9098 16.808 83.8431 17.176 84.5471 17.912C85.2511 18.6373 85.6031 19.5333 85.6031 20.6ZM79.2831 20.088H84.1631C84.0991 19.448 83.8538 18.9307 83.4271 18.536C83.0005 18.1413 82.4405 17.944 81.7471 17.944C81.1178 17.944 80.5845 18.136 80.1471 18.52C79.7098 18.8933 79.4218 19.416 79.2831 20.088ZM90.778 25.128C89.562 25.128 88.6073 24.744 87.914 23.976C87.2313 23.1973 86.89 22.1947 86.89 20.968C86.89 19.7413 87.2313 18.744 87.914 17.976C88.5967 17.1973 89.546 16.808 90.762 16.808C91.2953 16.808 91.802 16.9253 92.282 17.16C92.7727 17.3947 93.146 17.704 93.402 18.088V13.672H94.762V25H93.402V23.832C93.2207 24.2053 92.8847 24.5147 92.394 24.76C91.9033 25.0053 91.3647 25.128 90.778 25.128ZM89.002 23.112C89.482 23.6453 90.1167 23.912 90.906 23.912C91.6953 23.912 92.33 23.6453 92.81 23.112C93.29 22.568 93.53 21.8533 93.53 20.968C93.53 20.0827 93.29 19.3733 92.81 18.84C92.33 18.296 91.6953 18.024 90.906 18.024C90.1167 18.024 89.482 18.296 89.002 18.84C88.522 19.3733 88.282 20.0827 88.282 20.968C88.282 21.8533 88.522 22.568 89.002 23.112ZM96.8674 13.672H98.4354V15.4H96.8674V13.672ZM96.9634 25V16.936H98.3234V25H96.9634ZM103.534 16.808C104.526 16.808 105.326 17.08 105.934 17.624C106.542 18.168 106.846 18.904 106.846 19.832V25H105.502V23.624C105.267 24.0827 104.905 24.4507 104.414 24.728C103.934 24.9947 103.401 25.128 102.814 25.128C102.014 25.128 101.358 24.9093 100.846 24.472C100.345 24.024 100.094 23.448 100.094 22.744C100.094 21.2293 101.374 20.344 103.934 20.088L105.502 19.912V19.752C105.502 19.1973 105.321 18.76 104.958 18.44C104.606 18.1093 104.131 17.944 103.534 17.944C102.979 17.944 102.521 18.0987 102.158 18.408C101.795 18.7173 101.587 19.144 101.534 19.688L100.27 19.448C100.387 18.648 100.745 18.008 101.342 17.528C101.95 17.048 102.681 16.808 103.534 16.808ZM103.022 24.008C103.801 24.008 104.409 23.768 104.846 23.288C105.283 22.808 105.502 22.1627 105.502 21.352V20.968L103.934 21.144C102.281 21.3253 101.454 21.8533 101.454 22.728C101.454 23.1013 101.598 23.4107 101.886 23.656C102.185 23.8907 102.563 24.008 103.022 24.008Z" fill="black"/>
</svg>
