<svg width="42" height="42" viewBox="0 0 42 42" fill="none" xmlns="http://www.w3.org/2000/svg">
<g clip-path="url(#clip0_6_854)">
<path d="M25.6079 23.172C25.6079 24.012 25.8469 24.347 26.4719 24.347C27.865 24.347 28.7519 22.572 28.7519 19.62C28.7519 15.108 25.4639 12.948 21.3589 12.948C17.1359 12.948 13.2949 15.78 13.2949 21.132C13.2949 26.244 16.6549 29.028 21.8149 29.028C23.5669 29.028 24.7429 28.836 26.5419 28.236L26.9279 29.843C25.1519 30.42 23.254 30.587 21.7909 30.587C15.0229 30.587 11.3979 26.867 11.3979 21.131C11.3979 15.347 15.5989 11.411 21.3829 11.411C27.4069 11.411 30.5979 15.011 30.5979 19.427C30.5979 23.171 29.423 26.027 25.7269 26.027C24.0459 26.027 22.9429 25.355 22.7989 23.866C22.3669 25.522 21.2149 26.027 19.6539 26.027C17.5659 26.027 15.8139 24.418 15.8139 21.179C15.8139 17.915 17.3509 15.899 20.1109 15.899C21.5749 15.899 22.4869 16.475 22.8929 17.387L23.5899 16.115H25.6059V23.172H25.6079ZM22.6569 20.004C22.6569 18.685 21.6719 18.132 20.8559 18.132C19.9679 18.132 18.9849 18.851 18.9849 20.964C18.9849 22.644 19.7289 23.58 20.8559 23.58C21.6479 23.58 22.6569 23.076 22.6569 21.684V20.004Z" fill="#0F0F0F"/>
</g>
<defs>
<clipPath id="clip0_6_854">
<rect width="20" height="20" fill="white" transform="translate(11 11)"/>
</clipPath>
</defs>
</svg>
