<svg width="48" height="48" viewBox="0 0 48 48" fill="none" xmlns="http://www.w3.org/2000/svg">
<path fill-rule="evenodd" clip-rule="evenodd" d="M10.851 23.74C17.8452 20.7025 22.5013 18.6842 24.8393 17.705C31.4938 14.9273 32.8926 14.4477 33.7919 14.4277C33.9917 14.4277 34.4313 14.4677 34.7311 14.7075C34.9709 14.9073 35.0308 15.1671 35.0708 15.367C35.1108 15.5668 35.1507 15.9864 35.1108 16.3062C34.7511 20.103 33.1924 29.3153 32.393 33.5518C32.0533 35.3503 31.3939 35.9498 30.7544 36.0098C29.3556 36.1297 28.2965 35.0905 26.9576 34.2113C24.8393 32.8324 23.6603 31.9731 21.602 30.6142C19.224 29.0555 20.7627 28.1963 22.1216 26.7974C22.4813 26.4377 28.6162 20.8424 28.7361 20.3428C28.7561 20.2829 28.7561 20.0431 28.6162 19.9232C28.4763 19.8033 28.2765 19.8432 28.1166 19.8832C27.8968 19.9232 24.5396 22.1613 18.005 26.5776C17.0458 27.2371 16.1865 27.5568 15.4072 27.5368C14.5479 27.5168 12.9093 27.0572 11.6703 26.6575C10.1716 26.1779 8.97256 25.9182 9.07247 25.0789C9.13242 24.6392 9.73192 24.1996 10.851 23.74Z" fill="#0F0F0F"/>
</svg>
