<svg width="48" height="48" viewBox="0 0 48 48" fill="none" xmlns="http://www.w3.org/2000/svg">
<path d="M10.56 16C10.2509 16 10 16.2489 10 16.5556V24.3974C10 27.8201 12.6225 30.7953 16.0671 30.9892C19.3694 31.1747 22.1789 28.8758 22.7663 25.8058C23.0855 26.2336 23.41 26.6311 23.7376 26.9961L21.7612 35.3175C21.7225 35.483 21.7614 35.6556 21.8673 35.7895C21.9742 35.9217 22.1356 36 22.3069 36H25.1737C25.4335 36 25.6574 35.8263 25.7173 35.5757C26.065 34.1196 26.6102 31.8379 27.1042 29.7695L27.6139 30.0625C28.8263 30.6853 30.0565 31 31.2801 31C35.3077 31 38.5187 27.4672 37.9302 23.3611C37.5404 20.6411 35.432 18.3991 32.725 17.8207C29.5727 17.1469 26.5343 18.7495 25.2284 21.4134C25.2284 21.4134 25.0834 21.7325 24.967 22.0514C24.043 20.4703 23.5003 18.83 23.2159 17.6417C23.1123 17.2084 22.9571 16.4238 22.9391 16.3733C22.8613 16.1494 22.65 16 22.4109 16H19.5201C19.2109 16 18.9601 16.2489 18.9601 16.5556V24.5004C18.9601 25.8054 18.0009 26.9725 16.6916 27.0992C15.1897 27.2447 13.92 26.0722 13.92 24.6111V16.5556C13.92 16.2489 13.6691 16 13.36 16H10.56ZM31.2801 21.5556C32.8241 21.5556 34.0801 22.8017 34.0801 24.3333C34.0801 25.865 32.8241 27.1111 31.2801 27.1111C30.0341 27.1111 28.8797 26.3657 28.071 25.7157C28.3662 24.4796 28.5643 23.6517 28.5676 23.6378C28.8857 22.4117 30.0016 21.5556 31.2801 21.5556Z" fill="#0F0F0F"/>
</svg>
