<svg width="49" height="50" viewBox="0 0 49 50" fill="none" xmlns="http://www.w3.org/2000/svg">
<path d="M5 38.4562V27.6017C5 21.9142 6.16797 17.839 8.50391 15.3761C10.8398 12.9132 14.8135 11.6056 20.4248 11.4532L21.0723 19.5656C18.4316 19.5656 16.6162 19.9337 15.626 20.67C14.6611 21.4064 14.1025 22.8409 13.9502 24.9738H20.501V38.4562H5ZM26.7471 38.4562V27.6017C26.7471 21.9396 27.915 17.8771 30.251 15.4142C32.6123 12.9259 36.5986 11.6056 42.21 11.4532L42.8193 19.5656C40.2041 19.5656 38.4014 19.9337 37.4111 20.67C36.4463 21.4064 35.8877 22.8409 35.7354 24.9738H42.2861V38.4562H26.7471Z" fill="#75FB61"/>
</svg>
