<svg viewBox="0 0 21 21" fill="none" xmlns="http://www.w3.org/2000/svg">
<path d="M10.7808 15.662C11.1889 15.662 11.5197 15.3312 11.5197 14.9232C11.5197 14.5151 11.1889 14.1843 10.7808 14.1843C10.3727 14.1843 10.0419 14.5151 10.0419 14.9232C10.0419 15.3312 10.3727 15.662 10.7808 15.662Z" fill="#FE4F05"/>
<path d="M10.7811 13.0065C10.6337 13.0065 10.4924 12.9479 10.3882 12.8438C10.2841 12.7396 10.2255 12.5983 10.2255 12.4509L10.2255 5.78425C10.2255 5.63691 10.2841 5.4956 10.3882 5.39142C10.4924 5.28723 10.6337 5.2287 10.7811 5.2287C10.9284 5.2287 11.0697 5.28723 11.1739 5.39142C11.2781 5.4956 11.3366 5.63691 11.3366 5.78425L11.3366 12.4509C11.3366 12.5983 11.2781 12.7396 11.1739 12.8438C11.0697 12.9479 10.9284 13.0065 10.7811 13.0065Z" fill="#FE4F05"/>
<path d="M10.7795 19.3341C9.0214 19.3341 7.30283 18.8128 5.84106 17.8361C4.37929 16.8593 3.23998 15.4711 2.5672 13.8469C1.89442 12.2226 1.71839 10.4354 2.06137 8.71109C2.40435 6.98682 3.25093 5.40297 4.49407 4.15983C5.7372 2.9167 7.32105 2.07012 9.04532 1.72714C10.7696 1.38416 12.5569 1.56019 14.1811 2.23297C15.8053 2.90574 17.1936 4.04506 18.1703 5.50683C19.147 6.9686 19.6683 8.68717 19.6683 10.4452C19.6683 12.8027 18.7318 15.0636 17.0649 16.7306C15.3979 18.3976 13.1369 19.3341 10.7795 19.3341ZM10.7795 2.66745C9.24116 2.66745 7.73741 3.12361 6.45836 3.97824C5.17931 4.83288 4.18241 6.0476 3.59373 7.4688C3.00505 8.89 2.85102 10.4539 3.15113 11.9626C3.45124 13.4713 4.192 14.8572 5.27974 15.9449C6.36748 17.0327 7.75335 17.7734 9.26209 18.0736C10.7708 18.3737 12.3347 18.2196 13.7559 17.631C15.1771 17.0423 16.3918 16.0454 17.2464 14.7663C18.1011 13.4873 18.5572 11.9835 18.5572 10.4452C18.5572 8.38243 17.7378 6.40412 16.2792 4.94551C14.8206 3.48689 12.8423 2.66745 10.7795 2.66745Z" fill="#FE4F05"/>
</svg>
