<svg viewBox="0 0 48 48" fill="none" xmlns="http://www.w3.org/2000/svg">
<path d="M24.3592 38.2607C28.9173 38.1375 32.7027 36.9197 35.3335 34.4605C37.9944 31.9733 39.2452 28.4315 39.141 24.1604C39.0058 18.6156 37.2254 14.8036 34.2469 12.4283C31.3299 10.1021 27.5365 9.37716 23.8109 9.37716C19.6216 9.37717 15.7036 10.4567 12.8431 12.9497C9.94288 15.4773 8.34484 19.2704 8.47737 24.2226C8.48201 28.4737 9.80015 32.1235 12.595 34.6602C15.3787 37.1868 19.3921 38.3949 24.3592 38.2607Z" stroke="#75FB61" stroke-width="3.24543"/>
<circle cx="16.1851" cy="24.2" r="3.04618" fill="#75FB61"/>
<circle cx="31.4154" cy="24.2" r="3.04618" fill="#75FB61"/>
<path d="M9.36843 14.046C9.81178 14.046 10.3838 14.5538 10.3838 14.5538L8.31465 18.8691C8.31465 18.8691 7.86027 18.9965 7.59149 18.8691C7.26847 18.7161 7.17784 18.4524 7.0838 18.1076C6.9508 17.6199 7.19482 17.3232 7.33765 16.8384C7.48848 16.3263 7.62456 16.0553 7.84513 15.5691C8.02831 15.1654 8.23766 14.6691 8.35304 14.5537C8.66653 14.2402 8.92509 14.046 9.36843 14.046Z" fill="#75FB61"/>
<path d="M38.5244 14.046C38.0808 14.046 37.2545 14.5537 37.2545 14.5537L39.2853 19.0641C39.2853 19.0641 40.0336 19.1966 40.3026 19.0641C40.6258 18.9049 40.7165 18.6306 40.8106 18.2718C40.9437 17.7644 40.6995 17.4557 40.5566 16.9512C40.4056 16.4184 40.2695 16.1365 40.0487 15.6307C39.8654 15.2106 39.656 14.6943 39.5405 14.5742C39.2268 14.2481 38.9681 14.046 38.5244 14.046Z" fill="#75FB61"/>
<path d="M5.09298 22.4836C5.93363 21.9582 7.55388 22.25 7.55388 22.25L9.4084 31.6221C9.4084 31.6221 8.06153 32.455 7.12377 32.3837C6.7162 32.3527 6.45321 32.3493 6.10837 32.1298C5.87182 31.9793 5.7825 31.8356 5.60068 31.6221C5.22583 31.1821 5.07276 30.8816 4.83913 30.3529C4.43053 29.4282 4.48911 28.813 4.33144 27.8144C4.20678 27.0249 4.12375 26.5815 4.07759 25.7836C4.03751 25.0908 3.92497 24.6836 4.07782 24.0067C4.14687 23.7009 4.1759 23.5173 4.33144 23.2451C4.54011 22.88 4.73632 22.7065 5.09298 22.4836Z" fill="#75FB61"/>
<path d="M42.3302 22.5623C41.4897 22.0402 39.8699 22.3302 39.8699 22.3302L38.0159 31.6428C38.0159 31.6428 39.3624 32.4703 40.2999 32.3995C40.7074 32.3687 40.9703 32.3653 41.315 32.1473C41.5515 31.9977 41.6408 31.8549 41.8226 31.6428C42.1973 31.2056 42.3504 30.907 42.5839 30.3816C42.9924 29.4628 42.9339 28.8515 43.0915 27.8592C43.2161 27.0748 43.2991 26.6342 43.3453 25.8414C43.3854 25.153 43.4979 24.7483 43.3451 24.0757C43.276 23.7719 43.247 23.5894 43.0915 23.319C42.8829 22.9561 42.6867 22.7838 42.3302 22.5623Z" fill="#75FB61"/>
<path d="M27.0999 29.7845C25.902 30.3453 25.1223 30.5253 23.7998 30.5461C22.3806 30.5684 21.5314 30.3864 20.2459 29.7845" stroke="#75FB61" stroke-width="1.10345" stroke-linecap="round"/>
</svg>
