<svg viewBox="0 0 1740 174" fill="none" xmlns="http://www.w3.org/2000/svg">
<path d="M103.285 174C71.2196 174 46.0724 166.777 27.8435 152.332C9.61449 137.814 0.5 117.98 0.5 92.8293C0.5 67.4589 9.57788 47.5512 27.7336 33.1062C45.9626 18.5879 71.1464 11.3287 103.285 11.3287C135.277 11.3287 160.351 18.5879 178.507 33.1062C196.736 47.5512 205.85 67.4589 205.85 92.8293C205.85 117.906 196.736 137.704 178.507 152.223C160.351 166.741 135.277 174 103.285 174ZM103.285 137.924C140.475 137.924 159.07 122.893 159.07 92.8293C159.07 62.5461 140.475 47.4045 103.285 47.4045C65.9486 47.4045 47.2804 62.5461 47.2804 92.8293C47.2804 122.893 65.9486 137.924 103.285 137.924Z" fill="#75FB61"/>
<path d="M337.626 103.498V47.6245H381.002V171.47H342.348L339.164 147.163C333.307 155.595 325.73 162.195 316.432 166.961C307.208 171.654 297.032 174 285.904 174C268.627 174 255.34 169.527 246.042 160.582C236.818 151.563 232.206 138.731 232.206 122.086V47.6245H275.362V114.937C275.362 122.636 277.412 128.465 281.512 132.425C285.685 136.384 291.651 138.364 299.411 138.364C311.344 138.364 320.678 135.321 327.414 129.235C334.222 123.076 337.626 114.497 337.626 103.498Z" fill="#75FB61"/>
<path d="M424.818 123.516V79.7408H401.098V47.6245H413.287C416.362 47.6245 418.778 47.5512 420.535 47.4045C422.365 47.1846 424.086 46.6346 425.696 45.7547C427.38 44.8748 428.625 43.8483 429.43 42.6751C430.235 41.4286 431.004 39.4855 431.736 36.8458C432.468 34.2061 433.017 31.3831 433.383 28.3767C433.822 25.3704 434.262 21.2642 434.701 16.0582H468.194V47.6245H522.332V79.7408H468.194V118.346C468.194 127.072 470.024 132.938 473.685 135.944C477.345 138.877 484.117 140.344 494 140.344C504.322 140.344 514.389 139.317 524.199 137.264L522.771 170.15C511.204 172.717 497.88 174 482.799 174C462.74 174 448.062 170.077 438.764 162.231C429.466 154.386 424.818 141.48 424.818 123.516Z" fill="#75FB61"/>
<path d="M613.367 73.4715C593.015 73.4715 582.839 76.6978 582.839 83.1504C582.839 86.0101 584.303 88.1365 587.231 89.5297C590.233 90.8496 595.431 91.7295 602.825 92.1694L635 94.2592C654.107 95.6523 668.09 99.2819 676.949 105.148C685.88 110.941 690.346 119.446 690.346 130.665C690.346 144.523 683.83 155.229 670.799 162.781C657.768 170.26 638.734 174 613.696 174C590.269 174 572.736 170.994 561.096 164.981C549.456 158.895 541.695 148.96 537.815 135.174L578.776 129.125C580.313 134.991 583.827 139.207 589.318 141.774C594.882 144.267 602.752 145.513 612.928 145.513C636.208 145.513 647.848 142.14 647.848 135.394C647.848 132.388 646.53 130.188 643.895 128.795C641.333 127.402 636.574 126.449 629.619 125.936L597.005 124.176C578.19 122.783 564.244 118.97 555.166 112.737C546.161 106.504 541.659 97.7054 541.659 86.3401C541.659 73.5082 547.882 63.426 560.327 56.0935C572.846 48.7611 590.379 45.0948 612.928 45.0948C635.256 45.0948 652.35 48.0645 664.21 54.0038C676.143 59.8698 683.794 69.0721 687.161 81.6106L646.97 87.6599C645.579 82.6738 642.321 79.0809 637.196 76.8812C632.072 74.6081 624.129 73.4715 613.367 73.4715Z" fill="#75FB61"/>
<path d="M723.729 123.516V79.7408H700.009V47.6245H712.199C715.273 47.6245 717.689 47.5512 719.446 47.4045C721.276 47.1846 722.997 46.6346 724.607 45.7547C726.291 44.8748 727.536 43.8483 728.341 42.6751C729.146 41.4286 729.915 39.4855 730.647 36.8458C731.379 34.2061 731.928 31.3831 732.294 28.3767C732.734 25.3704 733.173 21.2642 733.612 16.0582H767.105V47.6245H821.243V79.7408H767.105V118.346C767.105 127.072 768.935 132.938 772.596 135.944C776.256 138.877 783.028 140.344 792.911 140.344C803.234 140.344 813.3 139.317 823.11 137.264L821.682 170.15C810.115 172.717 796.791 174 781.71 174C761.651 174 746.973 170.077 737.675 162.231C728.378 154.386 723.729 141.48 723.729 123.516Z" fill="#75FB61"/>
<path d="M840.57 85.0202C844.523 71.4551 852.503 61.4096 864.509 54.8837C876.589 48.3578 893.427 45.0948 915.023 45.0948C939.695 45.0948 957.704 48.9444 969.051 56.6435C980.399 64.3426 986.072 76.3312 986.072 92.6094V134.735C986.072 137.448 986.658 139.427 987.829 140.674C989.074 141.847 990.977 142.434 993.54 142.434C995.077 142.434 996.871 142.287 998.921 141.994L998.262 170.81C991.746 172.937 985.231 174 978.715 174C960.706 174 950.2 166.558 947.199 151.673C940.756 158.858 932.484 164.394 922.381 168.281C912.351 172.094 901.114 174 888.668 174C872.343 174 859.604 170.7 850.453 164.101C841.302 157.502 836.727 148.336 836.727 136.604C836.727 124.872 841.375 115.89 850.673 109.657C859.97 103.425 874.832 99.4652 895.257 97.7788L945.661 93.7092C945.222 87.2566 942.586 82.6005 937.755 79.7408C932.923 76.8078 925.126 75.3413 914.365 75.3413C904.042 75.3413 896.355 76.6612 891.304 79.3009C886.252 81.9406 883.214 86.0834 882.189 91.7295L840.57 85.0202ZM878.565 133.635C878.565 137.448 880.176 140.234 883.397 141.994C886.618 143.753 891.706 144.633 898.661 144.633C912.278 144.633 923.625 142.14 932.703 137.154C941.781 132.168 946.32 125.972 946.32 118.566V117.906L893.171 122.636C883.434 123.516 878.565 127.182 878.565 133.635Z" fill="#75FB61"/>
<path d="M1007.16 47.6245H1032.08C1032.67 31.5664 1037.98 19.6144 1048.01 11.7686C1058.11 3.92288 1073.26 0 1093.47 0C1104.38 0 1114.88 0.989886 1124.99 2.96966L1123.34 34.536C1116.09 32.9962 1108.07 32.2263 1099.29 32.2263C1090.94 32.2263 1084.98 33.3628 1081.39 35.6359C1077.88 37.909 1075.9 41.9052 1075.46 47.6245H1124.11V79.7408H1075.46V171.47H1032.08V79.7408H1007.16V47.6245Z" fill="#75FB61"/>
<path d="M1131.46 47.6245H1156.39C1156.98 31.5664 1162.29 19.6144 1172.32 11.7686C1182.42 3.92288 1197.57 0 1217.78 0C1228.69 0 1239.19 0.989886 1249.29 2.96966L1247.65 34.536C1240.4 32.9962 1232.38 32.2263 1223.6 32.2263C1215.25 32.2263 1209.29 33.3628 1205.7 35.6359C1202.18 37.909 1200.21 41.9052 1199.77 47.6245H1248.42V79.7408H1199.77V171.47H1156.39V79.7408H1131.46V47.6245Z" fill="#75FB61"/>
<path d="M1343.73 174C1317.52 174 1297.14 168.354 1282.57 157.062C1268 145.697 1260.71 129.858 1260.71 109.547C1260.71 89.2364 1268 73.4349 1282.57 62.1429C1297.14 50.7775 1317.52 45.0948 1343.73 45.0948C1369.87 45.0948 1390.22 50.7775 1404.79 62.1429C1419.36 73.4349 1426.64 89.2364 1426.64 109.547C1426.64 129.858 1419.39 145.697 1404.9 157.062C1390.4 168.354 1370.02 174 1343.73 174ZM1314.19 133.415C1320.56 138.547 1330.41 141.114 1343.73 141.114C1357.06 141.114 1366.83 138.547 1373.05 133.415C1379.28 128.282 1382.39 120.326 1382.39 109.547C1382.39 98.7686 1379.28 90.8129 1373.05 85.6802C1366.83 80.5474 1357.06 77.981 1343.73 77.981C1330.41 77.981 1320.56 80.5474 1314.19 85.6802C1307.9 90.8129 1304.75 98.7686 1304.75 109.547C1304.75 120.326 1307.9 128.282 1314.19 133.415Z" fill="#75FB61"/>
<path d="M1454.21 171.47V47.6245H1493.08L1496.48 76.2212C1502.93 66.689 1511.09 59.1365 1520.97 53.5638C1530.86 47.9178 1541.43 45.0948 1552.71 45.0948C1555.12 45.0948 1557.36 45.2415 1559.41 45.5348L1558.31 89.5297C1553.33 88.1365 1547.55 87.4399 1540.96 87.4399C1526.98 87.4399 1516.21 90.5929 1508.67 96.8989C1501.13 103.131 1497.36 112.077 1497.36 123.736V171.47H1454.21Z" fill="#75FB61"/>
<path d="M1641.88 174C1620.57 174 1603.77 168.244 1591.47 156.732C1579.17 145.147 1573.02 129.418 1573.02 109.547C1573.02 89.7497 1579.17 74.0582 1591.47 62.4728C1603.84 50.8875 1620.65 45.0948 1641.88 45.0948C1653.08 45.0948 1663.33 47.0379 1672.62 50.9241C1681.92 54.8104 1689.72 60.2364 1696.01 67.2023V2.52971H1739.5V171.47H1700.52L1697.88 149.803C1691.58 157.502 1683.64 163.478 1674.05 167.731C1664.46 171.91 1653.74 174 1641.88 174ZM1655.82 140.564C1668.85 140.564 1678.81 137.887 1685.69 132.535C1692.57 127.182 1696.01 119.52 1696.01 109.547C1696.01 99.5752 1692.57 91.9128 1685.69 86.56C1678.81 81.134 1668.85 78.421 1655.82 78.421C1643.01 78.421 1633.35 81.0973 1626.83 86.4501C1620.32 91.7295 1617.06 99.4286 1617.06 109.547C1617.06 119.666 1620.32 127.365 1626.83 132.645C1633.35 137.924 1643.01 140.564 1655.82 140.564Z" fill="#75FB61"/>
</svg>
