<svg viewBox="0 0 34 34" fill="none" xmlns="http://www.w3.org/2000/svg">
<path d="M21.5996 4.09328C23.3136 4.75831 24.8798 5.75443 26.2089 7.02476C27.5379 8.29509 28.6037 9.81476 29.3455 11.497C30.0872 13.1792 30.4903 14.9911 30.5319 16.8291C30.5734 18.6672 30.2525 20.4954 29.5874 22.2094C28.9224 23.9234 27.9263 25.4897 26.6559 26.8187C25.3856 28.1477 23.8659 29.2136 22.1837 29.9553C20.5015 30.6971 18.6896 31.1002 16.8516 31.1417C15.0135 31.1832 13.1853 30.8623 11.4713 30.1973C9.75729 29.5322 8.19105 28.5361 6.86201 27.2658C5.53296 25.9955 4.46714 24.4758 3.7254 22.7936C2.98366 21.1113 2.58052 19.2995 2.539 17.4614C2.49749 15.6234 2.81841 13.7952 3.48344 12.0812C4.14847 10.3671 5.14458 8.8009 6.41492 7.47185C7.68525 6.14281 9.20492 5.07699 10.8872 4.33524C12.5694 3.5935 14.3813 3.19036 16.2193 3.14885C18.0573 3.10733 19.8855 3.42825 21.5996 4.09328L21.5996 4.09328Z" stroke="#2B6522" stroke-width="5"/>
<path d="M21.5996 4.09328C23.3136 4.75831 24.8798 5.75443 26.2089 7.02476C27.5379 8.29509 28.6037 9.81476 29.3455 11.497C30.0872 13.1792 30.4903 14.9911 30.5319 16.8291C30.5734 18.6672 30.2525 20.4954 29.5874 22.2094C28.9224 23.9234 27.9263 25.4897 26.6559 26.8187C25.3856 28.1477 23.8659 29.2136 22.1837 29.9553C20.5015 30.6971 18.6896 31.1002 16.8516 31.1417C15.0135 31.1832 13.1853 30.8623 11.4713 30.1973" stroke="#75FB61" stroke-width="5" stroke-linecap="round"/>
</svg>
