<svg viewBox="0 0 34 34" fill="none" xmlns="http://www.w3.org/2000/svg">
<path d="M21.6356 3.59063C23.3496 4.25566 24.9158 5.25177 26.2449 6.52211C27.5739 7.79244 28.6397 9.31211 29.3815 10.9943C30.1232 12.6766 30.5264 14.4884 30.5679 16.3265C30.6094 18.1645 30.2885 19.9927 29.6234 21.7067C28.9584 23.4208 27.9623 24.987 26.692 26.316C25.4216 27.6451 23.902 28.7109 22.2197 29.4527C20.5375 30.1944 18.7256 30.5975 16.8876 30.639C15.0495 30.6806 13.2213 30.3596 11.5073 29.6946C9.7933 29.0296 8.22706 28.0335 6.89802 26.7631C5.56897 25.4928 4.50315 23.9731 3.76141 22.2909C3.01967 20.6087 2.61653 18.7968 2.57501 16.9588C2.5335 15.1207 2.85442 13.2925 3.51945 11.5785C4.18448 9.86448 5.1806 8.29824 6.45093 6.9692C7.72126 5.64015 9.24093 4.57433 10.9232 3.83259C12.6054 3.09085 14.4173 2.68771 16.2553 2.64619C18.0933 2.60468 19.9216 2.9256 21.6356 3.59063L21.6356 3.59063Z" stroke="#2BAE17" stroke-width="5"/>
<path d="M21.6356 3.59063C23.3496 4.25566 24.9158 5.25177 26.2449 6.52211C27.5739 7.79244 28.6397 9.31211 29.3815 10.9943C30.1232 12.6766 30.5264 14.4884 30.5679 16.3265C30.6094 18.1645 30.2885 19.9927 29.6234 21.7067C28.9584 23.4208 27.9623 24.987 26.692 26.316C25.4216 27.6451 23.902 28.7109 22.2197 29.4527C20.5375 30.1944 18.7256 30.5975 16.8876 30.639C15.0495 30.6806 13.2213 30.3596 11.5073 29.6946" stroke="black" stroke-width="5" stroke-linecap="round"/>
</svg>
