<svg viewBox="0 0 86 25" fill="none" xmlns="http://www.w3.org/2000/svg">
<path d="M22.2515 0.147705H26.1883V24.4532H22.2515V0.147705Z" fill="white"/>
<path d="M39.8816 16.7507C39.8816 20.5164 36.8006 20.8587 35.7736 20.8587C33.3773 20.8587 33.035 18.6336 33.035 17.4354V8.0213H29.0981V17.2642C29.0981 19.4894 29.7828 21.5434 31.1521 22.7415C32.3503 23.9397 33.8908 24.4532 35.7736 24.4532C37.1429 24.4532 38.8546 24.1109 39.8816 23.0839V24.4532H43.8184V8.0213H39.8816V16.7507Z" fill="white"/>
<path d="M51.5209 2.03052H47.584V8.02132H44.6742V11.787H47.584V24.4532H51.5209V11.787H54.4307V8.02132H51.5209V2.03052Z" fill="white"/>
<path d="M66.7546 19.4894C65.8988 20.1741 64.7006 20.6876 63.5024 20.6876C60.7638 20.6876 58.881 18.6336 58.881 15.895C58.881 13.1563 60.7638 11.2735 63.5024 11.2735C64.7006 11.2735 65.8988 11.6158 66.7546 12.4717L67.2681 12.9851L70.0067 10.4177L69.3221 9.90417C67.7816 8.53484 65.7276 7.67902 63.5024 7.67902C58.7098 7.67902 55.1153 11.2735 55.1153 16.0661C55.1153 20.8588 58.7098 24.4532 63.5024 24.4532C65.7276 24.4532 67.7816 23.5974 69.3221 22.2281L70.0067 21.7146L67.2681 18.9759L66.7546 19.4894Z" fill="white"/>
<path d="M83.8712 9.39065C82.673 8.19249 81.4749 7.679 79.592 7.679C78.2227 7.679 76.8534 8.02132 75.8264 9.04832V0.147705H71.8896V24.4532H75.8264V15.3814C75.8264 11.6158 78.3939 11.2735 79.4209 11.2735C81.8172 11.2735 81.646 13.4986 81.646 14.6968V24.2821H85.5828V14.868C85.5828 12.6428 85.0693 10.5888 83.8712 9.39065Z" fill="white"/>
<path d="M63.3313 18.8048C64.8438 18.8048 66.07 17.5786 66.07 16.0661C66.07 14.5536 64.8438 13.3275 63.3313 13.3275C61.8188 13.3275 60.5927 14.5536 60.5927 16.0661C60.5927 17.5786 61.8188 18.8048 63.3313 18.8048Z" fill="#EF4335"/>
<path d="M16.7742 18.4624C15.4049 19.8318 13.3509 20.6876 11.1258 20.6876C6.84663 20.6876 3.76564 17.2643 3.76564 12.6428C3.76564 8.02134 6.84662 4.59803 11.2969 4.59803C13.3509 4.59803 15.4049 5.45385 16.9454 6.99434L17.4589 7.50784L20.0264 4.94036L19.5129 4.42686C17.2877 2.20171 14.3779 1.00355 11.2969 1.00355C4.79264 0.832381 0 5.96735 0 12.6428C0 19.3183 4.79264 24.4532 11.1258 24.4532C14.2067 24.4532 17.2877 23.2551 19.3417 21.0299L19.8552 20.5164L17.2877 17.9489L16.7742 18.4624Z" fill="white"/>
</svg>
