<svg viewBox="0 0 37 36" xmlns="http://www.w3.org/2000/svg">
    <path fill-rule="evenodd" clip-rule="evenodd" d="M4.10156 7.05561C4.10156 5.14761 5.64956 3.59961 7.55757 3.59961C9.46557 3.59961 11.0136 5.14761 11.0136 7.05561C11.0136 8.96362 9.46557 10.5476 7.55757 10.5476C5.64956 10.5476 4.10156 8.96362 4.10156 7.05561ZM32.9016 32.3636V21.8516C32.9016 16.6676 31.7855 12.7076 25.7376 12.7076C22.8216 12.7076 20.8776 14.2916 20.0856 15.8036H20.0136V13.1756H14.2896V32.3996H20.2656V22.8596C20.2656 20.3396 20.7336 17.9276 23.8296 17.9276C26.8896 17.9276 26.9256 20.7716 26.9256 23.0036V32.3636H32.9016ZM4.56958 13.1757H10.5456V32.3997H4.56958V13.1757Z"/>
</svg>
