<svg viewBox="0 0 128 38" fill="none" xmlns="http://www.w3.org/2000/svg">
<path d="M82.9256 8.66207C77.3373 8.68813 72.785 13.1501 72.8106 18.7057C72.8363 24.2613 77.4341 28.6813 83.0225 28.6563C88.6108 28.6314 93.1643 24.1683 93.1375 18.615C93.1106 13.0617 88.514 8.63827 82.9233 8.66433L82.9256 8.66207ZM83.0026 24.582C81.4183 24.5911 79.8958 23.987 78.77 22.9047C77.6441 21.8223 77.02 20.3479 77.0025 18.8088C76.985 17.2697 77.615 15.7907 78.7291 14.6971C79.8433 13.6034 81.3611 12.9971 82.9455 12.9801C84.5298 12.9631 86.0523 13.5751 87.1781 14.6574C88.304 15.7397 88.9281 17.2142 88.9456 18.7533C88.962 21.8416 86.1806 24.5661 83.0026 24.582ZM105.566 13.3711C102.643 13.3847 100.367 15.7397 100.381 18.5787L100.428 28.0817L95.9806 28.1021L95.8908 9.2174L100.338 9.197L100.353 12.1584C100.353 12.1584 102.243 9.18907 106.056 9.17207L107.328 9.16527L107.349 13.3609L105.566 13.3711ZM61.2023 9.37833L64.5693 22.3233L68.0646 9.3466L72.512 9.32733L67.01 28.2483L62.691 28.2676L59.198 15.0779L55.831 28.2982L51.5108 28.3175L45.7031 9.4588L50.0221 9.43953L53.8955 22.3822L57.0105 9.4078L61.2023 9.37833ZM120.323 17.7491C123.362 16.0083 125.509 12.7885 125.491 9.08593L121.044 9.10633C121.06 12.3159 118.403 14.9203 115.227 14.9317L114.591 14.9339L114.521 0L110.074 0.0203996L110.21 28.0364L114.655 28.0171L114.613 19.1318L115.121 19.1295C115.63 19.1273 116.139 19.3721 116.269 19.7415L122.534 27.9809L127.743 27.9582L120.323 17.7491Z" fill="white"/>
<path d="M35.408 8.87961C30.5815 8.90228 26.9112 12.0042 25.538 16.9467C23.2338 13.5013 21.436 9.56074 20.4047 6.23328L15.3238 6.25594L15.3868 19.338C15.3924 20.5818 14.8894 21.7769 13.9883 22.6605C13.0872 23.5442 11.8617 24.0441 10.5813 24.0504C9.30095 24.0558 8.07073 23.5672 7.16108 22.6918C6.25144 21.8164 5.73682 20.626 5.73034 19.3822L5.66617 6.30014L0.583008 6.32281L0.646008 19.4049C0.672842 24.8335 5.13767 29.1357 10.6023 29.1096C16.067 29.0835 20.4933 24.744 20.4677 19.3142L20.456 17.0929C21.4803 19.0615 22.7613 21.1536 24.1695 22.9998L21.0627 37.4532L26.2707 37.4305L28.5107 26.9291C30.5488 28.1553 32.8273 28.8841 35.506 28.8716C41.0967 28.8455 45.6502 24.3836 45.621 18.7056C45.5998 16.0896 44.514 13.5879 42.6008 11.7468C40.6876 9.90564 38.1022 8.8745 35.4092 8.87848L35.408 8.87961ZM35.4803 23.8135C33.448 23.8226 31.4122 22.9681 29.7543 21.6171L30.2525 19.6417V19.5284C30.6258 17.4272 31.7482 13.8436 35.5608 13.8277C36.9052 13.8256 38.196 14.3393 39.1523 15.2571C40.1087 16.1749 40.6532 17.4224 40.6673 18.7283C40.553 21.5673 38.1508 23.7999 35.4815 23.8124L35.4803 23.8135Z" fill="#6FDA44"/>
</svg>
